<!-- sample rectangle -->
<svg viewBox="0 0 1400 700" preserveAspectRatio="xMidYMid slice" xmlns="http://www.w3.org/2000/svg">
  <defs>
    <!-- Gradients -->
    <linearGradient id="bgGrad" x1="0" x2="1" y1="0" y2="1">
      <stop offset="0%" stop-color="#071621"/>
      <stop offset="100%" stop-color="#04121a"/>
    </linearGradient>

    <linearGradient id="mesh1" x1="0" x2="1" y1="0" y2="1">
      <stop offset="0%" stop-color="#0f4c78" stop-opacity="0.35"/>
      <stop offset="100%" stop-color="#0b2b40" stop-opacity="0.15"/>
    </linearGradient>

    <linearGradient id="mesh2" x1="0" x2="1" y1="0" y2="1">
      <stop offset="0%" stop-color="#3b6fb1" stop-opacity="0.14"/>
      <stop offset="100%" stop-color="#07222b" stop-opacity="0.06"/>
    </linearGradient>

    <!-- Soft blur filter -->
    <filter id="softBlur" x="-20%" y="-20%" width="140%" height="140%">
      <feGaussianBlur stdDeviation="18" result="b"/>
      <feComposite in="SourceGraphic" in2="b" operator="over" result="c"/>
    </filter>

    <!-- Slight inner shadow for depth -->
    <filter id="innerShadow" x="-20%" y="-20%" width="140%" height="140%">
      <feOffset dx="0" dy="6" result="off"/>
      <feGaussianBlur in="off" stdDeviation="8" result="blur"/>
      <feComposite in="blur" in2="SourceAlpha" operator="out" result="shadow"/>
      <feColorMatrix in="shadow" type="matrix" values="0 0 0 0 0   0 0 0 0 0   0 0 0 0 0  0 0 0 0.25 0" result="shadowColor"/>
      <feComposite in="SourceGraphic" in2="shadowColor" operator="over"/>
    </filter>

    <!-- Rounded square shape used multiple times -->
    <rect id="roundedSquare" x="0" y="0" width="220" height="220" rx="22" ry="22"/>
  </defs>

  <!-- Background -->
  <rect width="1400" height="700" fill="url(#bgGrad)"/>

  <!-- Mesh gradient overlays -->
  <rect x="-200" y="-80" width="700" height="600" rx="60" fill="url(#mesh1)" filter="url(#softBlur)" />
  <rect x="700" y="80" width="850" height="700" rx="120" fill="url(#mesh2)" filter="url(#softBlur)" />

  <!-- Abstract campus blocks (soft geometric shapes) -->
  <!-- Left cluster -->
  <g transform="translate(80,120)" opacity="0.35" filter="url(#softBlur)">
    <use href="#roundedSquare" fill="#083945" transform="scale(1)"/>
    <rect x="120" y="140" width="160" height="180" rx="20" fill="#0a4754" opacity="0.75"/>
  </g>

  <!-- Center subtle blocks -->
  <g transform="translate(420,120)" opacity="0.24" filter="url(#softBlur)">
    <rect x="0" y="60" width="300" height="280" rx="36" fill="#072a3a"/>
    <rect x="220" y="220" width="160" height="160" rx="20" fill="#0a3744" opacity="0.9"/>
  </g>

  <!-- Right cluster -->
  <g transform="translate(980,120)" opacity="0.28" filter="url(#softBlur)">
    <rect x="0" y="20" width="220" height="220" rx="28" fill="#072430"/>
    <rect x="80" y="200" width="260" height="260" rx="36" fill="#053243" opacity="0.9"/>
  </g>

  <!-- Subtle icon pattern (tiny outlines) repeated across -->
  <g opacity="0.06" fill="none" stroke="#8fb3c5" stroke-width="1" transform="translate(80,140)">
    <g transform="translate(0,0)">
      <circle cx="20" cy="20" r="8"/>
      <rect x="48" y="12" width="18" height="16" rx="2"/>
      <path d="M84 12 L98 28" />
    </g>
    <g transform="translate(140,0)" >
      <circle cx="20" cy="20" r="8"/>
      <rect x="48" y="12" width="18" height="16" rx="2"/>
      <path d="M84 12 L98 28" />
    </g>
    <g transform="translate(280,0)" >
      <circle cx="20" cy="20" r="8"/>
      <rect x="48" y="12" width="18" height="16" rx="2"/>
      <path d="M84 12 L98 28" />
    </g>
    <g transform="translate(420,0)" >
      <circle cx="20" cy="20" r="8"/>
      <rect x="48" y="12" width="18" height="16" rx="2"/>
      <path d="M84 12 L98 28" />
    </g>
  </g>

  <!-- Center frosted panel for waitlist content hint -->
  <g transform="translate(160,80)" filter="url(#innerShadow)">
    <rect x="160" y="80" width="980" height="420" rx="36" fill="#071b23" opacity="0.25" />
  </g>

  <!-- Foreground subtle vignette -->
  <rect width="1400" height="700" fill="black" opacity="0.06"/>
</svg>
