<?xml version="1.0" encoding="UTF-8"?>
<svg version="1.1" xmlns="http://www.w3.org/2000/svg" width="3000" height="3000">
<path d="M0 0 C1.60751094 3.21502187 2.41384311 5.38665851 1.5 8.94921875 C-0.9918297 14.61145678 -5.23508368 19.12205945 -10 23 C-10.66 23 -11.32 23 -12 23 C-12 23.66 -12 24.32 -12 25 C-13.61382948 26.45659977 -15.29363216 27.84048951 -17 29.1875 C-21.27575866 32.59707271 -25.41099219 36.08991176 -29.44140625 39.78515625 C-31 41 -31 41 -33 41 C-33 41.66 -33 42.32 -33 43 C-34.43359375 44.41015625 -34.43359375 44.41015625 -36.4375 46.0625 C-42.06591566 50.84815823 -47.88424507 55.8263676 -52 62 C-52.66 62 -53.32 62 -54 62 C-54 62.66 -54 63.32 -54 64 C-55.57633385 65.39053024 -57.21404915 66.71172788 -58.875 68 C-63.83562308 71.95699187 -68.30383859 76.16167854 -72.7109375 80.73828125 C-75 83 -75 83 -77.58203125 85.0546875 C-79.81082616 86.84780521 -81.50485986 88.61013943 -83.3125 90.8125 C-86.35622676 94.38788209 -89.64914279 97.38490634 -93.2265625 100.4140625 C-95.44462971 102.3976204 -97.15089701 104.67370914 -99 107 C-105.3 113 -105.3 113 -108 113 C-108.33 113.99 -108.66 114.98 -109 116 C-109.66 116 -110.32 116 -111 116 C-111.33 116.99 -111.66 117.98 -112 119 C-112.66 119 -113.32 119 -114 119 C-114.33 119.99 -114.66 120.98 -115 122 C-115.66 122 -116.32 122 -117 122 C-117.33 122.99 -117.66 123.98 -118 125 C-118.66 125 -119.32 125 -120 125 C-120.33 125.99 -120.66 126.98 -121 128 C-121.66 128 -122.32 128 -123 128 C-123.33 128.99 -123.66 129.98 -124 131 C-124.66 131 -125.32 131 -126 131 C-126.33 131.99 -126.66 132.98 -127 134 C-127.66 134 -128.32 134 -129 134 C-129.26425781 134.58394531 -129.52851563 135.16789063 -129.80078125 135.76953125 C-131.04592111 138.08541027 -132.41462104 139.75234379 -134.1875 141.6875 C-137.5325798 145.40347777 -140.55113729 149.2912432 -143.51953125 153.3125 C-144.00808594 153.869375 -144.49664063 154.42625 -145 155 C-145.66 155 -146.32 155 -147 155 C-147.33 155.99 -147.66 156.98 -148 158 C-148.66 158 -149.32 158 -150 158 C-150.4640625 158.928125 -150.4640625 158.928125 -150.9375 159.875 C-151.625 161.25 -152.3125 162.625 -153 164 C-153.99 164 -154.98 164 -156 164 C-156.33 164.99 -156.66 165.98 -157 167 C-157.66 167 -158.32 167 -159 167 C-159.226875 167.556875 -159.45375 168.11375 -159.6875 168.6875 C-161.37550036 171.66159588 -163.46676517 173.72008865 -166 176 C-166.66 176 -167.32 176 -168 176 C-168.226875 176.70125 -168.45375 177.4025 -168.6875 178.125 C-170.33841288 181.74128535 -172.2908835 184.08769976 -175 187 C-175.66 187 -176.32 187 -177 187 C-177.26167969 187.57878906 -177.52335937 188.15757812 -177.79296875 188.75390625 C-183.1641317 198.74878876 -193.64033111 207.5601419 -204 212 C-209.74164313 213.68274281 -214.81419244 214.28672378 -220.77734375 214.23046875 C-221.58812881 214.23001053 -222.39891388 214.22955231 -223.23426819 214.2290802 C-224.93768795 214.22607861 -226.64110548 214.21825575 -228.34448242 214.20581055 C-230.92702153 214.18757399 -233.50920007 214.18530122 -236.09179688 214.18554688 C-237.75781555 214.18062929 -239.42383183 214.17479993 -241.08984375 214.16796875 C-242.22932716 214.16629951 -242.22932716 214.16629951 -243.39183044 214.16459656 C-247.85288997 214.12583666 -252.18362196 213.7834125 -256.61076355 213.24992371 C-261.16935987 212.77307627 -265.74561328 212.64082234 -270.32421875 212.47265625 C-271.40950363 212.43133072 -272.49478851 212.39000519 -273.61296082 212.34742737 C-286.34302576 211.88425433 -299.07607261 211.64304803 -311.8125 211.4375 C-313.07795654 211.41598877 -314.34341309 211.39447754 -315.6472168 211.37231445 C-330.70662401 211.12008978 -345.76262226 210.9633129 -360.82421875 210.97265625 C-361.5085026 210.97304838 -362.19278645 210.97344051 -362.89780617 210.97384453 C-370.15046333 210.97949093 -377.40294002 211.00071338 -384.65551758 211.03686523 C-385.86500565 211.04113022 -387.07449371 211.0453952 -388.32063293 211.04978943 C-390.55534437 211.05792389 -392.79004697 211.07019444 -395.02470398 211.08778381 C-401.09511789 211.10738583 -407.04241082 210.78344846 -413.08618164 210.22930908 C-417.66271722 209.86914896 -422.22405179 209.8569427 -426.8125 209.8671875 C-427.78807861 209.86623077 -428.76365723 209.86527405 -429.76879883 209.86428833 C-431.8123379 209.86361391 -433.85587922 209.8654161 -435.89941406 209.86962891 C-438.9928884 209.87498768 -442.08621758 209.86965853 -445.1796875 209.86328125 C-447.18229198 209.86394216 -449.18489637 209.8652236 -451.1875 209.8671875 C-452.09411377 209.86516327 -453.00072754 209.86313904 -453.93481445 209.86105347 C-459.63786847 209.88145131 -465.24709988 210.23933348 -470.92602539 210.75076294 C-476.15220307 211.17450006 -481.38547442 211.32878639 -486.625 211.5 C-488.98307526 211.583267 -491.34114811 211.66660228 -493.69921875 211.75 C-497.37055947 211.87641066 -501.04194207 212.00141186 -504.71337891 212.125 C-508.28822193 212.24639008 -511.8628551 212.37292841 -515.4375 212.5 C-516.53852051 212.53544922 -517.63954102 212.57089844 -518.77392578 212.60742188 C-519.79599121 212.64416016 -520.81805664 212.68089844 -521.87109375 212.71875 C-522.76755615 212.74904297 -523.66401855 212.77933594 -524.58764648 212.81054688 C-526.84652938 212.98794725 -528.8136884 213.43648313 -531 214 C-532.96243898 214.09179808 -534.92518873 214.18072833 -536.88891602 214.23876953 C-548.06729732 214.60735466 -556.04519001 216.39809305 -564.2109375 224.51171875 C-566 226 -566 226 -568.1640625 226.51953125 C-568.76992187 226.67808594 -569.37578125 226.83664062 -570 227 C-570.33 227.99 -570.66 228.98 -571 230 C-573.3984375 232.0078125 -573.3984375 232.0078125 -576.375 234.125 C-577.84066406 235.18074219 -577.84066406 235.18074219 -579.3359375 236.2578125 C-582 238 -582 238 -585 239 C-585.33 239.99 -585.66 240.98 -586 242 C-586.66 242 -587.32 242 -588 242 C-588.33 242.99 -588.66 243.98 -589 245 C-589.66 245 -590.32 245 -591 245 C-591.33 245.99 -591.66 246.98 -592 248 C-596.31818182 252.77272727 -596.31818182 252.77272727 -600 254 C-600.33 254.99 -600.66 255.98 -601 257 C-604.44444444 260 -604.44444444 260 -607 260 C-607 260.66 -607 261.32 -607 262 C-608.69903023 263.51740976 -610.46072723 264.965128 -612.25 266.375 C-615.05313312 268.59229313 -617.73701197 270.7305752 -620.234375 273.2890625 C-622 275 -622 275 -624 275 C-624.33 275.99 -624.66 276.98 -625 278 C-625.66 278 -626.32 278 -627 278 C-627.33 278.99 -627.66 279.98 -628 281 C-628.66 281 -629.32 281 -630 281 C-630.33 281.99 -630.66 282.98 -631 284 C-631.66 284 -632.32 284 -633 284 C-633.33 284.99 -633.66 285.98 -634 287 C-635.64639965 288.35827971 -637.31295807 289.69254251 -639 291 C-639.33 291.66 -639.66 292.32 -640 293 C-640.66 293 -641.32 293 -642 293 C-642.33 293.99 -642.66 294.98 -643 296 C-644.35546875 297.33203125 -644.35546875 297.33203125 -646.1875 298.8125 C-651.19096445 303.02306572 -655.70790698 307.68084431 -660.25073242 312.3762207 C-660.8357251 312.97265381 -661.42071777 313.56908691 -662.0234375 314.18359375 C-662.54856934 314.72556396 -663.07370117 315.26753418 -663.61474609 315.82592773 C-665 317 -665 317 -667 317 C-667 317.66 -667 318.32 -667 319 C-667.66 319 -668.32 319 -669 319 C-669.21140625 319.54785156 -669.4228125 320.09570312 -669.640625 320.66015625 C-671.48295053 323.83128554 -674.03574194 326.03107852 -676.75 328.4375 C-677.26304688 328.90220703 -677.77609375 329.36691406 -678.3046875 329.84570312 C-680.90640225 332.18920749 -683.54949962 334.46417875 -686.2578125 336.68359375 C-688.92181772 338.93395713 -690.84804076 341.27418496 -693 344 C-696.51724138 347 -696.51724138 347 -699 347 C-699.33 347.99 -699.66 348.98 -700 350 C-700.66 350 -701.32 350 -702 350 C-702.37125 350.928125 -702.37125 350.928125 -702.75 351.875 C-704.22770762 354.38710296 -705.43955177 354.76107344 -708 356 C-708.33 356.99 -708.66 357.98 -709 359 C-709.66 359 -710.32 359 -711 359 C-711.33 359.99 -711.66 360.98 -712 362 C-712.66 362 -713.32 362 -714 362 C-714.33 362.99 -714.66 363.98 -715 365 C-715.66 365 -716.32 365 -717 365 C-717.33 365.99 -717.66 366.98 -718 368 C-718.66 368 -719.32 368 -720 368 C-720.33 368.99 -720.66 369.98 -721 371 C-721.66 371 -722.32 371 -723 371 C-723.33 371.99 -723.66 372.98 -724 374 C-724.66 374 -725.32 374 -726 374 C-726.33 374.99 -726.66 375.98 -727 377 C-727.66 377 -728.32 377 -729 377 C-729.33 377.99 -729.66 378.98 -730 380 C-730.66 380 -731.32 380 -732 380 C-732.33 380.99 -732.66 381.98 -733 383 C-734.53564453 384.51000977 -734.53564453 384.51000977 -736.5078125 386.12890625 C-742.07297424 390.84849121 -747.08794272 396.07223448 -752.171875 401.29882812 C-752.89632812 402.03423828 -753.62078125 402.76964844 -754.3671875 403.52734375 C-755.01800293 404.19499756 -755.66881836 404.86265137 -756.33935547 405.55053711 C-758 407 -758 407 -760 407 C-760.20625 407.556875 -760.4125 408.11375 -760.625 408.6875 C-762.14576744 411.24515433 -763.97266537 412.68684979 -766.2890625 414.51171875 C-768.25306746 416.22013402 -769.87744435 418.07943232 -771.5625 420.0625 C-774.16539802 423.12104757 -776.86160805 425.48928644 -780 428 C-781.80567016 430.00630018 -783.55016945 432.05887564 -785.30078125 434.11328125 C-787.3310637 436.36759487 -789.61618712 438.13160612 -792 440 C-792.66 440.825 -793.32 441.65 -794 442.5 C-796 445 -796 445 -798.3125 446.75 C-801.6186065 449.51790311 -803.92142444 452.69685843 -806.44921875 456.171875 C-806.96097656 456.77515625 -807.47273438 457.3784375 -808 458 C-808.66 458 -809.32 458 -810 458 C-810.33 458.99 -810.66 459.98 -811 461 C-811.66 461 -812.32 461 -813 461 C-813.33 461.99 -813.66 462.98 -814 464 C-814.66 464 -815.32 464 -816 464 C-816.33 464.99 -816.66 465.98 -817 467 C-817.66 467 -818.32 467 -819 467 C-819.33 467.99 -819.66 468.98 -820 470 C-820.66 470 -821.32 470 -822 470 C-822.29003906 470.58265625 -822.58007812 471.1653125 -822.87890625 471.765625 C-823.56573572 473.13449768 -824.25944299 474.49997921 -824.96484375 475.859375 C-830.98908031 487.56913602 -832.59744907 496.85176532 -831 510 C-830.34 510 -829.68 510 -829 510 C-828.87625 510.928125 -828.87625 510.928125 -828.75 511.875 C-827.76174558 514.67505419 -826.59640015 514.74113932 -824 516 C-823.31731862 517.32520503 -822.6492959 518.65812182 -822 520 C-821.01 520.33 -820.02 520.66 -819 521 C-819 521.66 -819 522.32 -819 523 C-818.01 523 -817.02 523 -816 523 C-816 523.66 -816 524.32 -816 525 C-815.01 525.33 -814.02 525.66 -813 526 C-813 526.66 -813 527.32 -813 528 C-812.01 528.33 -811.02 528.66 -810 529 C-808.3125 530.4375 -808.3125 530.4375 -807 532 C-807 532.66 -807 533.32 -807 534 C-806.01 534.33 -805.02 534.66 -804 535 C-804 535.66 -804 536.32 -804 537 C-803.01 537.33 -802.02 537.66 -801 538 C-799.65576661 539.65788785 -798.32381517 541.32576317 -797 543 C-796.0925 543.70125 -795.185 544.4025 -794.25 545.125 C-793.5075 545.74375 -792.765 546.3625 -792 547 C-792 547.99 -792 548.98 -792 550 C-791.34 550 -790.68 550 -790 550 C-786.95604931 552.73955562 -784.55603771 555.18063472 -783 559 C-782.34 559 -781.68 559 -781 559 C-779.66104368 560.66215268 -778.32869858 562.32963607 -777 564 C-776.236875 564.598125 -775.47375 565.19625 -774.6875 565.8125 C-771.78771427 568.17279071 -769.54789915 570.72755078 -767.1171875 573.5546875 C-759.51736237 582.3323453 -751.53098895 590.50951619 -743.01416016 598.39697266 C-734.41236104 606.36801439 -725.99783505 614.4915229 -718.40625 623.44140625 C-716.91575467 625.17760964 -716.91575467 625.17760964 -714.5 627 C-711.66140957 629.27087235 -709.52631198 631.80651034 -707.1796875 634.5703125 C-703.92312879 638.20038331 -700.42557905 641.58274055 -696.91186523 644.96289062 C-695.57169889 646.27253558 -694.28116526 647.63258224 -693 649 C-693 649.66 -693 650.32 -693 651 C-692.01 651.33 -691.02 651.66 -690 652 C-690 652.66 -690 653.32 -690 654 C-689.01 654.33 -688.02 654.66 -687 655 C-687 655.66 -687 656.32 -687 657 C-686.01 657.33 -685.02 657.66 -684 658 C-684 658.66 -684 659.32 -684 660 C-683.01 660.33 -682.02 660.66 -681 661 C-679.3515625 662.70703125 -679.3515625 662.70703125 -677.625 664.8125 C-675.65096993 667.14582006 -673.89427153 669.08458277 -671.5 671 C-667.35244986 674.31804011 -663.29517548 678.40502342 -660.90625 683.19140625 C-659.70357562 685.59157107 -658.39184253 685.83824791 -656 687 C-653.25 689.5 -653.25 689.5 -651 692 C-651 692.66 -651 693.32 -651 694 C-650.01 694.33 -649.02 694.66 -648 695 C-648 695.66 -648 696.32 -648 697 C-647.01 697.33 -646.02 697.66 -645 698 C-645 698.66 -645 699.32 -645 700 C-644.01 700.33 -643.02 700.66 -642 701 C-642 701.66 -642 702.32 -642 703 C-641.01 703.33 -640.02 703.66 -639 704 C-639 704.66 -639 705.32 -639 706 C-638.01 706.33 -637.02 706.66 -636 707 C-636 707.66 -636 708.32 -636 709 C-635.01 709.33 -634.02 709.66 -633 710 C-633 710.66 -633 711.32 -633 712 C-632.34 712 -631.68 712 -631 712 C-628.875 713.875 -628.875 713.875 -627 716 C-627 716.66 -627 717.32 -627 718 C-626.01 718.33 -625.02 718.66 -624 719 C-624 719.66 -624 720.32 -624 721 C-623.34 721 -622.68 721 -622 721 C-620.66104368 722.66215268 -619.32869858 724.32963607 -618 726 C-617.175 726.66 -616.35 727.32 -615.5 728 C-612.87100457 730.10319635 -611.09680365 732.37899543 -609 735 C-608.175 735.66 -607.35 736.32 -606.5 737 C-603.87100457 739.10319635 -602.09680365 741.37899543 -600 744 C-598.35360035 745.35827971 -596.68704193 746.69254251 -595 748 C-592.6875 750.125 -592.6875 750.125 -591 752 C-591 752.66 -591 753.32 -591 754 C-590.34 754 -589.68 754 -589 754 C-587.66104368 755.66215268 -586.32869858 757.32963607 -585 759 C-583.8553125 759.8971875 -583.8553125 759.8971875 -582.6875 760.8125 C-575.30140225 766.82444003 -567.62591948 775.40707509 -566 785 C-566.2428115 793.485623 -566.2428115 793.485623 -568 797 C-568.66 797 -569.32 797 -570 797 C-570.07347656 797.54140625 -570.14695312 798.0828125 -570.22265625 798.640625 C-571.30904059 801.93799253 -573.2327102 804.08308626 -575.4375 806.75 C-576.24058594 807.73484375 -577.04367187 808.7196875 -577.87109375 809.734375 C-578.57363281 810.48203125 -579.27617188 811.2296875 -580 812 C-580.66 812 -581.32 812 -582 812 C-582.33 812.99 -582.66 813.98 -583 815 C-583.66 815 -584.32 815 -585 815 C-585 815.66 -585 816.32 -585 817 C-586.96498322 818.38442 -588.97048465 819.71203834 -591 821 C-591.7425 821.5775 -592.485 822.155 -593.25 822.75 C-595 824 -595 824 -597 824 C-597.33 824.99 -597.66 825.98 -598 827 C-598.66 827 -599.32 827 -600 827 C-600.268125 827.58394531 -600.53625 828.16789062 -600.8125 828.76953125 C-604.85463279 836.36182672 -612.34298176 842.7425377 -619 848 C-619.66 848 -620.32 848 -621 848 C-621.33 848.99 -621.66 849.98 -622 851 C-622.66 851 -623.32 851 -624 851 C-624.33 851.99 -624.66 852.98 -625 854 C-625.66 854 -626.32 854 -627 854 C-627.24105469 854.56847656 -627.48210937 855.13695312 -627.73046875 855.72265625 C-629.24968088 858.44788908 -631.07418981 860.26690339 -633.3125 862.4375 C-634.11945313 863.22640625 -634.92640625 864.0153125 -635.7578125 864.828125 C-636.49773437 865.54484375 -637.23765625 866.2615625 -638 867 C-638.886875 867.886875 -639.77375 868.77375 -640.6875 869.6875 C-641.8321875 870.8321875 -641.8321875 870.8321875 -643 872 C-643.515625 872.53882813 -644.03125 873.07765625 -644.5625 873.6328125 C-646.00551235 875.12438777 -647.49954061 876.56622769 -649 878 C-649.66 878 -650.32 878 -651 878 C-651.24363281 878.56074219 -651.48726562 879.12148437 -651.73828125 879.69921875 C-653.24529231 882.44729774 -655.07199215 884.50037007 -657.1875 886.8125 C-657.98929688 887.69035156 -658.79109375 888.56820312 -659.6171875 889.47265625 C-661.63950992 891.61764413 -663.69895645 893.69592845 -665.8125 895.75 C-667.96817654 897.85078662 -669.70058672 899.8951809 -671.3125 902.4375 C-671.869375 903.283125 -672.42625 904.12875 -673 905 C-673.66 905 -674.32 905 -675 905 C-675.33 905.99 -675.66 906.98 -676 908 C-676.66 908 -677.32 908 -678 908 C-678.27271729 908.59014893 -678.54543457 909.18029785 -678.82641602 909.78833008 C-683.32811663 918.27198015 -691.99931463 925.21779748 -698.73413086 931.97436523 C-700.56894147 933.81897588 -702.3928048 935.67399583 -704.21679688 937.52929688 C-705.39517413 938.7141976 -706.57418857 939.89846508 -707.75390625 941.08203125 C-708.2915712 941.632043 -708.82923615 942.18205475 -709.38319397 942.74873352 C-720.39782164 953.69948653 -736.34086733 953.8046717 -751 954 C-759.09996384 953.93293463 -767.1923321 953.6114529 -775.28491211 953.27587891 C-778.98323944 953.12311062 -782.68190973 952.98444704 -786.38085938 952.84765625 C-788.74221909 952.75601874 -791.10354866 952.66360043 -793.46484375 952.5703125 C-794.56577866 952.52858917 -795.66671356 952.48686584 -796.80101013 952.44387817 C-797.82050247 952.40068451 -798.83999481 952.35749084 -799.89038086 952.31298828 C-800.78349472 952.2766629 -801.67660858 952.24033752 -802.5967865 952.20291138 C-805 952 -805 952 -806.70840365 951.49518311 C-809.85584042 950.81506441 -812.84839333 950.87456806 -816.06875515 950.87415886 C-816.78436624 950.87270542 -817.49997733 950.87125198 -818.2372736 950.86975449 C-820.64757836 950.86609011 -823.05782004 950.86958297 -825.46812439 950.87301636 C-827.20867923 950.87186471 -828.94923383 950.8702769 -830.68978792 950.86828911 C-835.48256817 950.86410173 -840.27532859 950.86618385 -845.06810892 950.86927533 C-850.23314639 950.87153161 -855.39818038 950.86804866 -860.56321716 950.86529541 C-870.68571111 950.86084109 -880.80819765 950.86181271 -890.93069189 950.86470805 C-899.15566963 950.86696353 -907.38064529 950.86727398 -915.60562325 950.86618423 C-916.77484011 950.866031 -917.94405698 950.86587777 -919.14870467 950.86571989 C-921.52372388 950.86540018 -923.89874308 950.86507596 -926.27376229 950.8647473 C-948.5620045 950.86189347 -970.8502426 950.86517796 -993.13848413 950.87054767 C-1012.27388406 950.87501503 -1031.40927792 950.87424014 -1050.54467773 950.86962891 C-1072.74989677 950.86428044 -1094.9551122 950.86216877 -1117.16033179 950.86524117 C-1119.52707485 950.86555973 -1121.89381792 950.8658741 -1124.26056099 950.86618423 C-1125.42513201 950.86633851 -1126.58970303 950.86649279 -1127.78956408 950.86665174 C-1136.00668737 950.86751611 -1144.22380838 950.8660557 -1152.44093132 950.86370468 C-1162.45202306 950.86090344 -1172.46310696 950.8616518 -1182.4741978 950.86698543 C-1187.58459685 950.86961813 -1192.69498281 950.87063476 -1197.80538177 950.86733627 C-1202.48027805 950.86436447 -1207.15514906 950.865981 -1211.83004303 950.87131383 C-1213.52448279 950.87243422 -1215.21892468 950.87185514 -1216.91336309 950.86943804 C-1219.21074061 950.86641133 -1221.5080308 950.86950224 -1223.80540371 950.87415886 C-1225.72220712 950.87440239 -1225.72220712 950.87440239 -1227.67773384 950.87465084 C-1230.59570721 950.98474603 -1233.16348603 951.35609995 -1236 952 C-1237.80656913 952.11423615 -1239.61620864 952.18506309 -1241.42602539 952.22119141 C-1242.48805679 952.24436432 -1243.5500882 952.26753723 -1244.64430237 952.29141235 C-1245.78390915 952.3112619 -1246.92351593 952.33111145 -1248.09765625 952.3515625 C-1249.2829039 952.37471527 -1250.46815155 952.39786804 -1251.6893158 952.42172241 C-1254.19835234 952.46931336 -1256.70743441 952.51455323 -1259.21655273 952.55761719 C-1263.02411987 952.62432756 -1266.83134118 952.7023058 -1270.63867188 952.78125 C-1273.08332078 952.82620892 -1275.52798205 952.87050074 -1277.97265625 952.9140625 C-1279.09809341 952.93796051 -1280.22353058 952.96185852 -1281.3830719 952.98648071 C-1299.51172644 953.2685634 -1313.24451678 950.50498474 -1327 938 C-1327.33 937.01 -1327.66 936.02 -1328 935 C-1328.66 935 -1329.32 935 -1330 935 C-1331.28100586 933.57885742 -1331.28100586 933.57885742 -1332.71484375 931.60546875 C-1333.23626953 930.89712891 -1333.75769531 930.18878906 -1334.29492188 929.45898438 C-1334.83697266 928.70939453 -1335.37902344 927.95980469 -1335.9375 927.1875 C-1337.00691834 925.7210521 -1338.07846102 924.25615052 -1339.15234375 922.79296875 C-1339.8637854 921.81106567 -1339.8637854 921.81106567 -1340.58959961 920.80932617 C-1341.96270153 918.95902933 -1341.96270153 918.95902933 -1343.67797852 917.38793945 C-1345 916 -1345 916 -1345 914 C-1345.66 914 -1346.32 914 -1347 914 C-1348.3046875 912.70703125 -1348.3046875 912.70703125 -1349.875 910.8125 C-1353.22400859 906.87124568 -1356.67634276 903.04617808 -1360.1875 899.25 C-1360.69845215 898.69546143 -1361.2094043 898.14092285 -1361.73583984 897.56958008 C-1363.89973053 895.22931216 -1366.06115631 892.94137081 -1368.36328125 890.734375 C-1370 889 -1370 889 -1370 887 C-1370.61875 886.7525 -1371.2375 886.505 -1371.875 886.25 C-1374.35068687 884.79371361 -1374.95125002 883.62187494 -1376 881 C-1376.66 881 -1377.32 881 -1378 881 C-1379.33895632 879.33784732 -1380.67130142 877.67036393 -1382 876 C-1382.825 875.34 -1383.65 874.68 -1384.5 874 C-1387.13802151 871.88958279 -1388.92642062 869.65677358 -1391 867 C-1393.22737122 864.71830265 -1395.47892287 862.48514077 -1397.8125 860.3125 C-1399 859 -1399 859 -1399 857 C-1399.55042969 856.78730469 -1400.10085938 856.57460937 -1400.66796875 856.35546875 C-1403.80344842 854.53300402 -1405.94668498 852.00642075 -1408.3125 849.3125 C-1409.28925087 848.22425977 -1410.26711319 847.13701609 -1411.24609375 846.05078125 C-1411.71772949 845.52564941 -1412.18936523 845.00051758 -1412.67529297 844.45947266 C-1416.8177702 839.89557128 -1421.13361024 835.78496981 -1426 832 C-1427.8125 830.375 -1427.8125 830.375 -1429 829 C-1429 828.34 -1429 827.68 -1429 827 C-1429.56203125 826.77570312 -1430.1240625 826.55140625 -1430.703125 826.3203125 C-1433.68618424 824.60556076 -1435.47933018 822.46299945 -1437.75 819.875 C-1442.41166852 814.65707742 -1447.24173392 809.63673112 -1452.1875 804.6875 C-1452.84008789 804.03056152 -1453.49267578 803.37362305 -1454.16503906 802.69677734 C-1458.12958829 798.74320196 -1462.21346834 795.03043597 -1466.5246582 791.45629883 C-1467.011521 790.97572021 -1467.49838379 790.4951416 -1468 790 C-1468 789.34 -1468 788.68 -1468 788 C-1468.556875 787.7525 -1469.11375 787.505 -1469.6875 787.25 C-1474.02247396 784.90677083 -1477.71109301 781.6543411 -1481 778 C-1481 777.34 -1481 776.68 -1481 776 C-1481.61875 775.7525 -1482.2375 775.505 -1482.875 775.25 C-1485.38710296 773.77229238 -1485.76107344 772.56044823 -1487 770 C-1487.99 769.67 -1488.98 769.34 -1490 769 C-1490 768.34 -1490 767.68 -1490 767 C-1490.556875 766.773125 -1491.11375 766.54625 -1491.6875 766.3125 C-1494.66159588 764.62449964 -1496.72008865 762.53323483 -1499 760 C-1499 759.34 -1499 758.68 -1499 758 C-1499.556875 757.773125 -1500.11375 757.54625 -1500.6875 757.3125 C-1503.66159588 755.62449964 -1505.72008865 753.53323483 -1508 751 C-1508 750.34 -1508 749.68 -1508 749 C-1508.99 748.67 -1509.98 748.34 -1511 748 C-1511 747.34 -1511 746.68 -1511 746 C-1511.61875 745.7525 -1512.2375 745.505 -1512.875 745.25 C-1515.38710296 743.77229238 -1515.76107344 742.56044823 -1517 740 C-1517.99 739.67 -1518.98 739.34 -1520 739 C-1520 738.34 -1520 737.68 -1520 737 C-1520.556875 736.773125 -1521.11375 736.54625 -1521.6875 736.3125 C-1524.66159588 734.62449964 -1526.72008865 732.53323483 -1529 730 C-1529 729.34 -1529 728.68 -1529 728 C-1529.85476929 727.63527588 -1529.85476929 727.63527588 -1530.72680664 727.26318359 C-1533.42189106 725.7655607 -1535.21564007 723.99334976 -1537.37109375 721.7890625 C-1538.19287109 720.95632813 -1539.01464844 720.12359375 -1539.86132812 719.265625 C-1540.71146484 718.39421875 -1541.56160156 717.5228125 -1542.4375 716.625 C-1544.12133681 714.90653745 -1545.80746459 713.19031613 -1547.49609375 711.4765625 C-1548.24044678 710.71424316 -1548.9847998 709.95192383 -1549.75170898 709.16650391 C-1552.05794275 706.94416506 -1554.486512 704.98185474 -1557 703 C-1558.03609396 701.88669711 -1559.04066594 700.74258991 -1560 699.5625 C-1563.98360578 694.68484634 -1568.60067619 690.40280723 -1573.08203125 685.98828125 C-1574.50477487 684.579322 -1575.92750427 683.17034802 -1577.34936523 681.76049805 C-1578.33199785 680.78803116 -1579.31640133 679.81735068 -1580.30249023 678.84838867 C-1581.7336325 677.44137874 -1583.15795058 676.02743802 -1584.58203125 674.61328125 C-1585.85397339 673.35704956 -1585.85397339 673.35704956 -1587.15161133 672.07543945 C-1589 670 -1589 670 -1589 668 C-1589.53463867 667.78988281 -1590.06927734 667.57976563 -1590.62011719 667.36328125 C-1593.9245415 665.47038985 -1596.41594503 662.86934474 -1599.078125 660.1875 C-1599.64956238 659.61797607 -1600.22099976 659.04845215 -1600.80975342 658.46166992 C-1602.01234789 657.2604332 -1603.21243334 656.05668003 -1604.41015625 654.85058594 C-1606.25040717 652.99959045 -1608.10112633 651.15954554 -1609.953125 649.3203125 C-1611.12043384 648.15168276 -1612.28712251 646.98243316 -1613.453125 645.8125 C-1614.00929504 645.26037842 -1614.56546509 644.70825684 -1615.13848877 644.1394043 C-1619 640.22993635 -1619 640.22993635 -1619 638 C-1619.556875 637.773125 -1620.11375 637.54625 -1620.6875 637.3125 C-1623.66159588 635.62449964 -1625.72008865 633.53323483 -1628 631 C-1628 630.34 -1628 629.68 -1628 629 C-1628.99 628.67 -1629.98 628.34 -1631 628 C-1631 627.34 -1631 626.68 -1631 626 C-1631.99 625.67 -1632.98 625.34 -1634 625 C-1634 624.34 -1634 623.68 -1634 623 C-1634.66 623 -1635.32 623 -1636 623 C-1637.34919532 621.34614767 -1638.68133728 619.678298 -1640 618 C-1640.99 617.34 -1641.98 616.68 -1643 616 C-1643 615.34 -1643 614.68 -1643 614 C-1643.99 613.67 -1644.98 613.34 -1646 613 C-1646 612.34 -1646 611.68 -1646 611 C-1646.66 611 -1647.32 611 -1648 611 C-1649.34919532 609.34614767 -1650.68133728 607.678298 -1652 606 C-1652.99 605.34 -1653.98 604.68 -1655 604 C-1655 603.34 -1655 602.68 -1655 602 C-1655.66 602 -1656.32 602 -1657 602 C-1658.33895632 600.33784732 -1659.67130142 598.67036393 -1661 597 C-1662.66270287 595.66172696 -1664.32916181 594.32810215 -1666 593 C-1669 589.48275862 -1669 589.48275862 -1669 587 C-1669.556875 586.773125 -1670.11375 586.54625 -1670.6875 586.3125 C-1673.66159588 584.62449964 -1675.72008865 582.53323483 -1678 580 C-1678 579.34 -1678 578.68 -1678 578 C-1678.556875 577.7525 -1679.11375 577.505 -1679.6875 577.25 C-1682.44160479 575.76129471 -1684.69174514 574.11590028 -1687 572 C-1687 571.01 -1687 570.02 -1687 569 C-1687.99 568.67 -1688.98 568.34 -1690 568 C-1691.46826172 566.51049805 -1691.46826172 566.51049805 -1693.0546875 564.57421875 C-1697.46965405 559.37161103 -1702.27950784 554.61146971 -1707.125 549.8125 C-1708.00542969 548.93658203 -1708.88585938 548.06066406 -1709.79296875 547.15820312 C-1713.13486124 543.8339526 -1716.47981899 540.51301599 -1719.8359375 537.203125 C-1722.93072795 534.05247191 -1725.81095393 530.72480792 -1728.71875 527.40234375 C-1730.99717072 525.00297946 -1733.40827145 523.04917668 -1736 521 C-1737.14121965 519.82659845 -1738.25065036 518.62068407 -1739.3125 517.375 C-1739.82425781 516.78460937 -1740.33601563 516.19421875 -1740.86328125 515.5859375 C-1742 514 -1742 514 -1742 512 C-1742.66 512 -1743.32 512 -1744 512 C-1746.50079824 506.39821194 -1747.83364007 502.06426746 -1746 496 C-1744.53050373 492.54826954 -1742.8248004 489.27557339 -1741 486 C-1740.505 485.071875 -1740.01 484.14375 -1739.5 483.1875 C-1737.61736085 480.44198457 -1735.38183766 478.32770499 -1733 476 C-1731.16361249 473.87407407 -1729.34960614 471.73201091 -1727.55078125 469.57421875 C-1727.03902344 469.05472656 -1726.52726562 468.53523438 -1726 468 C-1725.34 468 -1724.68 468 -1724 468 C-1723.67 467.01 -1723.34 466.02 -1723 465 C-1721.36328125 463.3515625 -1721.36328125 463.3515625 -1719.3125 461.625 C-1718.23162109 460.70460938 -1718.23162109 460.70460938 -1717.12890625 459.765625 C-1715.85126605 458.70600414 -1714.56889846 457.6519906 -1713.27734375 456.609375 C-1710.96747775 454.74257793 -1708.9946242 452.99295585 -1707.1875 450.625 C-1704.57657022 447.49188427 -1701.61885706 445.34092616 -1698.37109375 442.8984375 C-1695.271506 440.41672474 -1692.59293877 437.61915905 -1689.8359375 434.76953125 C-1688 433 -1688 433 -1684.9375 431 C-1681.53901466 428.68613764 -1679.29148452 426.01763353 -1676.6640625 422.88671875 C-1674.65900799 420.6133823 -1672.38122512 418.86636563 -1670 417 C-1668.66172696 415.33729713 -1667.32810215 413.67083819 -1666 412 C-1662.48275862 409 -1662.48275862 409 -1660 409 C-1659.66935547 408.16275391 -1659.66935547 408.16275391 -1659.33203125 407.30859375 C-1657.57225172 404.25865327 -1655.32965209 402.38969356 -1652.6875 400.0625 C-1644.94763076 393.14854956 -1637.69841742 385.76949787 -1630.41796875 378.37890625 C-1627.3580667 375.36843719 -1624.13451405 372.57839545 -1620.890625 369.76953125 C-1618.92091997 368.13136012 -1618.92091997 368.13136012 -1618 366 C-1617.34 366 -1616.68 366 -1616 366 C-1615.73832031 365.40058594 -1615.47664063 364.80117187 -1615.20703125 364.18359375 C-1613.92779812 361.86938236 -1612.73749558 360.70340555 -1610.6875 359.0625 C-1605.63723421 354.88691942 -1601.31736895 350.29144171 -1597.13671875 345.2578125 C-1595.40582949 343.42882897 -1593.71258633 341.89324259 -1591.79296875 340.28149414 C-1585.66007141 334.93960903 -1579.99953953 329.10972463 -1574.26925087 323.34441566 C-1572.1399387 321.20222187 -1570.0074149 319.06327113 -1567.87406921 316.9250946 C-1563.350717 312.39037799 -1558.83132487 307.85172751 -1554.3125 303.3125 C-1549.06240268 298.0387586 -1543.81067146 292.76666585 -1538.55470848 287.49876976 C-1536.45826167 285.39586177 -1534.36485882 283.28995577 -1532.27156067 281.18391418 C-1530.98367917 279.89239951 -1529.69565671 278.6010254 -1528.4074707 277.30981445 C-1527.83021744 276.72739487 -1527.25296417 276.14497528 -1526.65821838 275.54490662 C-1523.58155457 272.4678428 -1520.41567185 269.7052987 -1517 267 C-1516.01 265.7625 -1516.01 265.7625 -1515 264.5 C-1512.89680365 261.87100457 -1510.62100457 260.09680365 -1508 258 C-1507.01 256.7625 -1507.01 256.7625 -1506 255.5 C-1504 253 -1504 253 -1501.6875 251.1875 C-1499.29111114 249.23695092 -1497.49337714 247.33929942 -1495.5 245 C-1492.87424305 241.92152633 -1490.16134342 239.52907474 -1487 237 C-1485.27819149 235.10861944 -1483.62424788 233.16560615 -1481.9609375 231.22265625 C-1477.04910348 225.65525872 -1471.79131534 220.63305227 -1466 216 C-1465.34 215.175 -1464.68 214.35 -1464 213.5 C-1461.89680365 210.87100457 -1459.62100457 209.09680365 -1457 207 C-1456.34 206.175 -1455.68 205.35 -1455 204.5 C-1452.89680365 201.87100457 -1450.62100457 200.09680365 -1448 198 C-1447.34 197.175 -1446.68 196.35 -1446 195.5 C-1443.89680365 192.87100457 -1441.62100457 191.09680365 -1439 189 C-1438.34 188.175 -1437.68 187.35 -1437 186.5 C-1435 184 -1435 184 -1432.6875 182.1875 C-1430.42281254 180.34414974 -1428.78084311 178.65954747 -1426.9140625 176.45141602 C-1422.72040793 171.60879218 -1418.22946737 167.10396926 -1413.6875 162.58984375 C-1412.29585089 161.20043614 -1410.90420191 159.8110284 -1409.51255798 158.4216156 C-1408.03113357 156.94354034 -1406.54846776 155.46672097 -1405.06542969 153.99026489 C-1401.96009519 150.89856949 -1398.85868286 147.80295899 -1395.7578125 144.70678711 C-1388.61628615 137.57725079 -1381.46973276 130.45276054 -1374.32312012 123.32832336 C-1367.76767359 116.79311338 -1361.21332191 110.25681497 -1354.6630249 103.71644306 C-1351.5871708 100.64553862 -1348.50890347 97.57708109 -1345.42869568 94.51054382 C-1343.97145039 93.05899471 -1342.51538071 91.6062783 -1341.05981445 90.15304565 C-1339.29464721 88.39072153 -1337.52770524 86.63017221 -1335.75854492 84.87185669 C-1331.48462138 80.59831432 -1327.36670239 76.25444526 -1323.43807983 71.66026306 C-1321.40719246 69.31560373 -1319.222817 67.16274086 -1317 65 C-1314.11889883 62.17281928 -1311.24636424 59.33706467 -1308.375 56.5 C-1307.2303125 55.38044922 -1307.2303125 55.38044922 -1306.0625 54.23828125 C-1305.32773438 53.50996094 -1304.59296875 52.78164063 -1303.8359375 52.03125 C-1303.17126465 51.37705078 -1302.5065918 50.72285156 -1301.82177734 50.04882812 C-1299.86315473 47.84609951 -1298.50046293 45.52918744 -1297 43 C-1295.33784732 41.66104368 -1293.67036393 40.32869858 -1292 39 C-1290.26173365 37.13570934 -1288.60955196 35.21073685 -1286.953125 33.2734375 C-1284.08986339 29.94060099 -1281.13121167 26.69603307 -1278.1796875 23.44140625 C-1276.84799588 21.94981617 -1275.53536266 20.44055997 -1274.2578125 18.90234375 C-1268.04138523 11.42181046 -1258.72921231 1.25672643 -1248.5625 0.1875 C-1247.48162109 0.05408203 -1247.48162109 0.05408203 -1246.37890625 -0.08203125 C-1237.55489994 0.22224483 -1231.05905875 6.97861169 -1225 12.75 C-1223.19231638 14.78364408 -1222.02144043 16.49282803 -1221 19 C-1220.34 19 -1219.68 19 -1219 19 C-1217.48259024 20.69903023 -1216.034872 22.46072723 -1214.625 24.25 C-1212.40770687 27.05313312 -1210.2694248 29.73701197 -1207.7109375 32.234375 C-1206 34 -1206 34 -1206 36 C-1205.01 36.33 -1204.02 36.66 -1203 37 C-1201.63360658 38.6396721 -1200.3050581 40.31110128 -1199 42 C-1197.63875 43.3303125 -1197.63875 43.3303125 -1196.25 44.6875 C-1194 47 -1194 47 -1194 49 C-1193.01 49.33 -1192.02 49.66 -1191 50 C-1191 50.66 -1191 51.32 -1191 52 C-1190.01 52.33 -1189.02 52.66 -1188 53 C-1188 53.66 -1188 54.32 -1188 55 C-1187.01 55.33 -1186.02 55.66 -1185 56 C-1185 56.66 -1185 57.32 -1185 58 C-1184.01 58.33 -1183.02 58.66 -1182 59 C-1182 59.66 -1182 60.32 -1182 61 C-1181.071875 61.37125 -1181.071875 61.37125 -1180.125 61.75 C-1177.61289704 63.22770762 -1177.23892656 64.43955177 -1176 67 C-1175.01 67.33 -1174.02 67.66 -1173 68 C-1173 68.66 -1173 69.32 -1173 70 C-1172.01 70.33 -1171.02 70.66 -1170 71 C-1170 71.66 -1170 72.32 -1170 73 C-1169.071875 73.37125 -1169.071875 73.37125 -1168.125 73.75 C-1165.61289704 75.22770762 -1165.23892656 76.43955177 -1164 79 C-1163.01 79.33 -1162.02 79.66 -1161 80 C-1161 80.66 -1161 81.32 -1161 82 C-1160.1646875 82.37125 -1160.1646875 82.37125 -1159.3125 82.75 C-1154.49550614 85.35378047 -1150.79538412 89.10729834 -1147 93 C-1146.236875 93.721875 -1145.47375 94.44375 -1144.6875 95.1875 C-1143 97 -1143 97 -1143 99 C-1142.44828125 99.22300781 -1141.8965625 99.44601562 -1141.328125 99.67578125 C-1138.2694324 101.41554097 -1136.1926188 103.65764482 -1133.75 106.1875 C-1128.35167889 111.70754707 -1122.70015564 116.7760249 -1116.75 121.6875 C-1114.35593723 123.70068915 -1112.08794036 125.67114345 -1110 128 C-1110 128.66 -1110 129.32 -1110 130 C-1109.1646875 130.37125 -1109.1646875 130.37125 -1108.3125 130.75 C-1100.06377951 135.20876783 -1093.17075796 144.06644266 -1090.41015625 153.04296875 C-1089.07985406 159.39041065 -1089.30498773 163.49363001 -1092.875 169.0625 C-1094.4921875 171.34765625 -1094.4921875 171.34765625 -1096 173 C-1096.66 173 -1097.32 173 -1098 173 C-1098.33 173.99 -1098.66 174.98 -1099 176 C-1099.66 176 -1100.32 176 -1101 176 C-1101.33 176.99 -1101.66 177.98 -1102 179 C-1102.66 179 -1103.32 179 -1104 179 C-1104.10489746 179.59312988 -1104.20979492 180.18625977 -1104.31787109 180.79736328 C-1105.10302004 183.33265812 -1106.03307223 184.39394939 -1107.9140625 186.2421875 C-1108.51089844 186.83386719 -1109.10773437 187.42554688 -1109.72265625 188.03515625 C-1110.35042969 188.64230469 -1110.97820313 189.24945312 -1111.625 189.875 C-1112.22957031 190.47441406 -1112.83414063 191.07382813 -1113.45703125 191.69140625 C-1124.96186958 203 -1124.96186958 203 -1128 203 C-1128.33 203.99 -1128.66 204.98 -1129 206 C-1129.66 206 -1130.32 206 -1131 206 C-1131.2475 206.556875 -1131.495 207.11375 -1131.75 207.6875 C-1133.72965114 211.34985461 -1136.02956464 214.2393885 -1139.3125 216.8125 C-1143.80624628 220.47020046 -1147.44991194 224.94988353 -1150.9375 229.5625 C-1153.43052843 232.50880632 -1156.23598047 234.88359126 -1159.1953125 237.3515625 C-1161.21772256 239.06632331 -1161.21772256 239.06632331 -1163 242 C-1163.66 242 -1164.32 242 -1165 242 C-1165 242.66 -1165 243.32 -1165 244 C-1166.22361755 245.20237732 -1166.22361755 245.20237732 -1168.06420898 246.69311523 C-1174.33771597 252.03430234 -1180.05059217 257.94034854 -1185.85481453 263.77964973 C-1188.00987682 265.9475994 -1190.16815575 268.11230134 -1192.32725525 270.27622986 C-1196.90849823 274.86883921 -1201.48578952 279.4653744 -1206.0625 284.0625 C-1211.37360501 289.39727614 -1216.68635546 294.73039195 -1222.00335503 300.05929375 C-1224.12077095 302.18315114 -1226.23513207 304.31001711 -1228.34938049 306.43702698 C-1229.65733141 307.74861302 -1230.96542439 309.06005741 -1232.27368164 310.37133789 C-1232.85309509 310.95591766 -1233.43250854 311.54049744 -1234.02947998 312.14279175 C-1241.95635303 320.07067458 -1241.95635303 320.07067458 -1246 323 C-1246.66 323 -1247.32 323 -1248 323 C-1248.33 323.99 -1248.66 324.98 -1249 326 C-1249.66 326 -1250.32 326 -1251 326 C-1251.33 326.99 -1251.66 327.98 -1252 329 C-1252.66 329 -1253.32 329 -1254 329 C-1254 329.66 -1254 330.32 -1254 331 C-1255.6796875 332.7265625 -1255.6796875 332.7265625 -1257.875 334.625 C-1258.95394531 335.57246094 -1258.95394531 335.57246094 -1260.0546875 336.5390625 C-1262 338 -1262 338 -1264 338 C-1264 338.66 -1264 339.32 -1264 340 C-1265.375 341.625 -1265.375 341.625 -1267 343 C-1267.66 343 -1268.32 343 -1269 343 C-1269.26425781 343.60328125 -1269.52851562 344.2065625 -1269.80078125 344.828125 C-1271.05755074 347.1042287 -1272.15440162 348.16818433 -1274.1875 349.75 C-1277.59088385 352.54739832 -1280.37562121 355.62022553 -1283.23046875 358.96484375 C-1285.0343079 361.03945787 -1286.89263413 363.0324356 -1288.8125 365 C-1289.37582031 365.5775 -1289.93914062 366.155 -1290.51953125 366.75 C-1292 368 -1292 368 -1294 368 C-1294 368.66 -1294 369.32 -1294 370 C-1295.22265625 371.19921875 -1295.22265625 371.19921875 -1297.0625 372.6875 C-1302.15568826 376.99852006 -1306.78763895 381.73252111 -1311.45532227 386.49291992 C-1319.92752717 395.07848767 -1319.92752717 395.07848767 -1324 398 C-1324.66 398 -1325.32 398 -1326 398 C-1326.33 398.99 -1326.66 399.98 -1327 401 C-1327.66 401 -1328.32 401 -1329 401 C-1329.33 401.99 -1329.66 402.98 -1330 404 C-1330.66 404 -1331.32 404 -1332 404 C-1332.33 404.99 -1332.66 405.98 -1333 407 C-1333.66 407 -1334.32 407 -1335 407 C-1335 407.66 -1335 408.32 -1335 409 C-1336.65385233 410.34919532 -1338.321702 411.68133728 -1340 413 C-1340.66 413.99 -1341.32 414.98 -1342 416 C-1342.66 416 -1343.32 416 -1344 416 C-1344.33 416.99 -1344.66 417.98 -1345 419 C-1346.70703125 420.75390625 -1346.70703125 420.75390625 -1348.8125 422.5625 C-1349.84310547 423.46162109 -1349.84310547 423.46162109 -1350.89453125 424.37890625 C-1352.86555845 425.89648749 -1354.73964261 426.97902958 -1357 428 C-1357 428.66 -1357 429.32 -1357 430 C-1359.9700654 433.25749109 -1363.24616978 436.09957918 -1366.5625 439 C-1369.75808931 441.81190836 -1372.35150933 444.66802787 -1375 448 C-1377.59297314 450.42087315 -1380.29644477 452.7042436 -1383 455 C-1383.99193359 455.88171875 -1383.99193359 455.88171875 -1385.00390625 456.78125 C-1385.62136719 457.3278125 -1386.23882813 457.874375 -1386.875 458.4375 C-1387.42929688 458.93121094 -1387.98359375 459.42492188 -1388.5546875 459.93359375 C-1390 461 -1390 461 -1392 461 C-1392.2475 461.61875 -1392.495 462.2375 -1392.75 462.875 C-1394.22770762 465.38710296 -1395.43955177 465.76107344 -1398 467 C-1398.33 467.99 -1398.66 468.98 -1399 470 C-1399.66 470 -1400.32 470 -1401 470 C-1401.309375 471.0209375 -1401.309375 471.0209375 -1401.625 472.0625 C-1403.06327468 475.13517772 -1404.90112766 477.31947676 -1407.14453125 479.83984375 C-1409.45025101 482.52418697 -1411.61162256 485.30730734 -1413.75 488.125 C-1414.50796875 489.11757812 -1415.2659375 490.11015625 -1416.046875 491.1328125 C-1419.28338171 495.88400435 -1420.28434982 498.96161569 -1419.6796875 504.7421875 C-1417.88458713 510.70522207 -1414.19342805 515.21326203 -1410 519.6875 C-1409.53231201 520.19007324 -1409.06462402 520.69264648 -1408.58276367 521.21044922 C-1404.41618884 525.65176597 -1400.09860067 529.94622019 -1395.70898438 534.16674805 C-1394.43634252 535.4083344 -1393.21306147 536.70014007 -1392 538 C-1392 538.66 -1392 539.32 -1392 540 C-1391.01 540.33 -1390.02 540.66 -1389 541 C-1389 541.66 -1389 542.32 -1389 543 C-1388.01 543.33 -1387.02 543.66 -1386 544 C-1386 544.66 -1386 545.32 -1386 546 C-1385.01 546.33 -1384.02 546.66 -1383 547 C-1381.3125 548.4375 -1381.3125 548.4375 -1380 550 C-1380 550.66 -1380 551.32 -1380 552 C-1379.01 552.33 -1378.02 552.66 -1377 553 C-1377 553.66 -1377 554.32 -1377 555 C-1376.01 555.33 -1375.02 555.66 -1374 556 C-1371 559.44444444 -1371 559.44444444 -1371 562 C-1370.443125 562.226875 -1369.88625 562.45375 -1369.3125 562.6875 C-1366.33840412 564.37550036 -1364.27991135 566.46676517 -1362 569 C-1362 569.66 -1362 570.32 -1362 571 C-1361.01 571.33 -1360.02 571.66 -1359 572 C-1359 572.66 -1359 573.32 -1359 574 C-1358.01 574.33 -1357.02 574.66 -1356 575 C-1356 575.66 -1356 576.32 -1356 577 C-1355.01 577.33 -1354.02 577.66 -1353 578 C-1353 578.66 -1353 579.32 -1353 580 C-1352.34 580 -1351.68 580 -1351 580 C-1348.875 581.875 -1348.875 581.875 -1347 584 C-1347 584.66 -1347 585.32 -1347 586 C-1346.01 586.33 -1345.02 586.66 -1344 587 C-1344 587.66 -1344 588.32 -1344 589 C-1343.34 589 -1342.68 589 -1342 589 C-1339.875 590.875 -1339.875 590.875 -1338 593 C-1338 593.66 -1338 594.32 -1338 595 C-1337.38125 595.2475 -1336.7625 595.495 -1336.125 595.75 C-1333.61289704 597.22770762 -1333.23892656 598.43955177 -1332 601 C-1331.01 601.33 -1330.02 601.66 -1329 602 C-1329 602.66 -1329 603.32 -1329 604 C-1328.01 604.33 -1327.02 604.66 -1326 605 C-1326 605.66 -1326 606.32 -1326 607 C-1325.34 607 -1324.68 607 -1324 607 C-1322.65080468 608.65385233 -1321.31866272 610.321702 -1320 612 C-1319.01 612.66 -1318.02 613.32 -1317 614 C-1317 614.66 -1317 615.32 -1317 616 C-1316.34 616 -1315.68 616 -1315 616 C-1313.44921875 617.609375 -1313.44921875 617.609375 -1311.6875 619.75 C-1309.00325382 622.91874705 -1306.27239835 625.43514724 -1303 628 C-1301.66666667 629.66666667 -1300.33333333 631.33333333 -1299 633 C-1298.175 633.66 -1297.35 634.32 -1296.5 635 C-1293.87822591 637.09741927 -1292.07286535 639.37437055 -1290 642 C-1289.01 642.66 -1288.02 643.32 -1287 644 C-1287 644.66 -1287 645.32 -1287 646 C-1286.01 646.33 -1285.02 646.66 -1284 647 C-1284 647.66 -1284 648.32 -1284 649 C-1283.34 649 -1282.68 649 -1282 649 C-1279.875 650.875 -1279.875 650.875 -1278 653 C-1278 653.66 -1278 654.32 -1278 655 C-1277.443125 655.20625 -1276.88625 655.4125 -1276.3125 655.625 C-1273.14159851 657.51040088 -1271.31270521 660.15359359 -1269 663 C-1268.01 663.66 -1267.02 664.32 -1266 665 C-1266 665.66 -1266 666.32 -1266 667 C-1265.01 667.33 -1264.02 667.66 -1263 668 C-1263 668.66 -1263 669.32 -1263 670 C-1262.34 670 -1261.68 670 -1261 670 C-1258.875 671.875 -1258.875 671.875 -1257 674 C-1257 674.66 -1257 675.32 -1257 676 C-1256.01 676.33 -1255.02 676.66 -1254 677 C-1254 677.66 -1254 678.32 -1254 679 C-1253.34 679 -1252.68 679 -1252 679 C-1250.66104368 680.66215268 -1249.32869858 682.32963607 -1248 684 C-1247.175 684.66 -1246.35 685.32 -1245.5 686 C-1242.87100457 688.10319635 -1241.09680365 690.37899543 -1239 693 C-1238.175 693.66 -1237.35 694.32 -1236.5 695 C-1234 697 -1234 697 -1232.1875 699.3125 C-1229.65371077 702.42544106 -1226.80285626 704.81287112 -1223.70703125 707.3515625 C-1222 709 -1222 709 -1221 712 C-1219.08333333 713.16666667 -1219.08333333 713.16666667 -1217 714 C-1216.34 714.33 -1215.68 714.66 -1215 715 C-1215 715.66 -1215 716.32 -1215 717 C-1214.443125 717.2475 -1213.88625 717.495 -1213.3125 717.75 C-1211 719 -1211 719 -1208.625 720.9375 C-1202.19443265 725.99008863 -1196.33971052 727.10859108 -1188.34448242 727.17358398 C-1187.69112474 727.18031631 -1187.03776707 727.18704865 -1186.36461067 727.19398499 C-1184.94315397 727.20808388 -1183.52167465 727.22003034 -1182.10018349 727.23007011 C-1179.81039337 727.24641552 -1177.52072678 727.26868154 -1175.23100281 727.29249573 C-1171.93907152 727.32637702 -1168.64713058 727.35821654 -1165.35516357 727.38842773 C-1140.84682603 727.61702845 -1116.36453506 727.96399524 -1091.875 729 C-1066.65141888 730.05356184 -1041.4294156 730.36330194 -1016.1875 730.625 C-1015.20908897 730.6353125 -1014.23067795 730.645625 -1013.2226181 730.65625 C-1002.20884345 730.77192265 -991.19508875 730.87375436 -980.18095016 730.94768143 C-976.35508095 730.97369159 -972.52938159 731.00312123 -968.70367432 731.04724121 C-964.98605806 731.08978692 -961.2685316 731.12060374 -957.55078125 731.1484375 C-956.52897263 731.16379547 -955.507164 731.17915344 -954.45439148 731.19497681 C-947.69595843 731.22654245 -940.44391156 731.19645018 -934 729 C-932.61298503 727.02688703 -932.61298503 727.02688703 -932 725 C-932.95262034 723.51714758 -933.91228405 722.03881799 -934.875 720.5625 C-935.67550781 719.32693359 -935.67550781 719.32693359 -936.4921875 718.06640625 C-937.83834306 715.88961129 -937.83834306 715.88961129 -940 715 C-940 714.34 -940 713.68 -940 713 C-940.99 712.67 -941.98 712.34 -943 712 C-944.5078125 710.5390625 -944.5078125 710.5390625 -946.125 708.625 C-946.73730469 707.90699219 -947.34960938 707.18898438 -947.98046875 706.44921875 C-949.39397282 704.73496913 -950.79113592 703.00717414 -952.17578125 701.26953125 C-956.0340459 696.43837086 -959.80107013 692.02749028 -964.5625 688.08203125 C-968.69088213 684.55570484 -972.59884117 680.78859445 -976.54541016 677.0612793 C-979.31210517 674.46049923 -982.06095483 671.95101563 -985.0234375 669.5703125 C-987.34266427 667.56762061 -989.14734339 665.74018884 -991.10400391 663.42749023 C-995.2923566 658.59399187 -999.77787762 654.0966693 -1004.3125 649.58984375 C-1005.70414911 648.20043614 -1007.09579809 646.8110284 -1008.48744202 645.4216156 C-1009.96886643 643.94354034 -1011.45153224 642.46672097 -1012.93457031 640.99026489 C-1016.03990481 637.89856949 -1019.14131714 634.80295899 -1022.2421875 631.70678711 C-1028.82515175 625.13487511 -1035.41234722 618.56721173 -1042 612 C-1049.11445877 604.90761693 -1056.2281616 597.81448518 -1063.3369751 590.71644306 C-1066.4128292 587.64553862 -1069.49109653 584.57708109 -1072.57130432 581.51054382 C-1074.02854961 580.05899471 -1075.48461929 578.6062783 -1076.94018555 577.15304565 C-1078.70535279 575.39072153 -1080.47229476 573.63017221 -1082.24145508 571.87185669 C-1086.5106173 567.60307522 -1090.62447702 563.26460312 -1094.5482111 558.6750927 C-1096.53727429 556.38008602 -1098.6675216 554.25373647 -1100.83984375 552.1328125 C-1101.67451172 551.31039062 -1102.50917969 550.48796875 -1103.36914062 549.640625 C-1105.10705275 547.93839624 -1106.84668634 546.23792357 -1108.58789062 544.5390625 C-1109.41353516 543.724375 -1110.23917969 542.9096875 -1111.08984375 542.0703125 C-1111.84128662 541.33570801 -1112.59272949 540.60110352 -1113.36694336 539.84423828 C-1115 538 -1115 538 -1115 536 C-1115.66 536 -1116.32 536 -1117 536 C-1118.3046875 534.48828125 -1118.3046875 534.48828125 -1119.875 532.3125 C-1123.51395774 527.48094266 -1127.50790122 523.09280036 -1131.64794922 518.69458008 C-1141 508.73515342 -1141 508.73515342 -1141 506 C-1141.66 506 -1142.32 506 -1143 506 C-1147.70268907 498.79900736 -1148.22064093 491.46370878 -1147 483 C-1145.9172727 480.48207664 -1144.53605725 478.26456238 -1143 476 C-1142.36964844 475.05640625 -1141.73929688 474.1128125 -1141.08984375 473.140625 C-1130.26705085 458.60547664 -1116.83404453 445.74030295 -1102.75 434.375 C-1100.10538872 432.09101753 -1098.16599172 429.72495733 -1096 427 C-1095.236875 426.401875 -1094.47375 425.80375 -1093.6875 425.1875 C-1091.29111114 423.23695092 -1089.49337714 421.33929942 -1087.5 419 C-1084.87424305 415.92152633 -1082.16134342 413.52907474 -1079 411 C-1077.19432984 408.99369982 -1075.44983055 406.94112436 -1073.69921875 404.88671875 C-1071.6689363 402.63240513 -1069.38381288 400.86839388 -1067 399 C-1066.34 398.175 -1065.68 397.35 -1065 396.5 C-1062.89680365 393.87100457 -1060.62100457 392.09680365 -1058 390 C-1056.66172696 388.33729713 -1055.32810215 386.67083819 -1054 385 C-1050.48275862 382 -1050.48275862 382 -1048 382 C-1047.773125 381.443125 -1047.54625 380.88625 -1047.3125 380.3125 C-1045.62449964 377.33840412 -1043.53323483 375.27991135 -1041 373 C-1040.34 373 -1039.68 373 -1039 373 C-1038.67 372.01 -1038.34 371.02 -1038 370 C-1037.34 370 -1036.68 370 -1036 370 C-1035.67 369.01 -1035.34 368.02 -1035 367 C-1033.45348716 365.47246039 -1033.45348716 365.47246039 -1031.47286606 363.83992958 C-1026.90075642 359.95689032 -1022.6678098 355.80728487 -1018.43414307 351.56112671 C-1017.60933591 350.73787954 -1016.78452875 349.91463237 -1015.93472743 349.06643832 C-1013.66700054 346.80198906 -1011.40150172 344.53533894 -1009.13697028 342.26769495 C-1006.6861872 339.8146368 -1004.23251286 337.36447341 -1001.77922058 334.91392517 C-996.98287713 330.12201533 -992.18922515 325.32742188 -987.39655074 320.53184269 C-983.50130309 316.63433232 -979.60507521 312.73780436 -975.70815277 308.84196854 C-975.15254397 308.28651297 -974.59693517 307.73105741 -974.02448975 307.15876985 C-972.89565017 306.03025002 -971.76680836 304.90173242 -970.63796434 303.77321704 C-960.06794438 293.20604461 -949.50098474 282.63581621 -938.93507847 272.0645308 C-929.87202974 262.99701099 -920.80635722 253.93212137 -911.73876953 244.86914062 C-901.19943943 234.33516274 -890.66173424 223.79956374 -880.12661529 213.26137412 C-879.00327367 212.13771396 -877.87992997 211.01405589 -876.75658417 209.89039993 C-876.20392075 209.33758224 -875.65125734 208.78476455 -875.08184655 208.21519481 C-871.18974609 204.32223142 -867.29648748 200.43042858 -863.40277863 196.53907394 C-858.65915879 191.79825931 -853.91732612 187.05566577 -849.1777719 182.31078647 C-846.76030504 179.89069294 -844.34204815 177.47140324 -841.92161369 175.05427742 C-839.29806661 172.43345642 -836.67760891 169.80958504 -834.05792236 167.18490601 C-833.29295008 166.42216444 -832.5279778 165.65942288 -831.73982453 164.87356794 C-828.869784 161.99288404 -826.14477856 159.18330327 -823.62137985 155.98844337 C-823.0863245 155.33225706 -822.55126915 154.67607075 -822 154 C-821.34 154 -820.68 154 -820 154 C-819.67 153.01 -819.34 152.02 -819 151 C-818.34 151 -817.68 151 -817 151 C-816.67 150.01 -816.34 149.02 -816 148 C-815.34 148 -814.68 148 -814 148 C-813.67 147.01 -813.34 146.02 -813 145 C-812.34 145 -811.68 145 -811 145 C-810.67 144.01 -810.34 143.02 -810 142 C-809.34 142 -808.68 142 -808 142 C-807.67 141.01 -807.34 140.02 -807 139 C-806.34 139 -805.68 139 -805 139 C-804.67 138.01 -804.34 137.02 -804 136 C-803.34 136 -802.68 136 -802 136 C-801.67 135.01 -801.34 134.02 -801 133 C-800.34 133 -799.68 133 -799 133 C-799 132.34 -799 131.68 -799 131 C-797.01739574 129.31267723 -795.0167658 127.64633943 -793 126 C-792.67 125.34 -792.34 124.68 -792 124 C-791.34 124 -790.68 124 -790 124 C-789.67 123.01 -789.34 122.02 -789 121 C-788.34 121 -787.68 121 -787 121 C-786.67 120.01 -786.34 119.02 -786 118 C-785.34 118 -784.68 118 -784 118 C-783.67 117.01 -783.34 116.02 -783 115 C-782.34 115 -781.68 115 -781 115 C-780.67 114.01 -780.34 113.02 -780 112 C-779.34 112 -778.68 112 -778 112 C-777.773125 111.443125 -777.54625 110.88625 -777.3125 110.3125 C-775.63283282 107.35308639 -773.43248148 105.37591214 -771 103 C-770.175 101.989375 -769.35 100.97875 -768.5 99.9375 C-766.16605816 97.19511833 -763.80414483 95.22893564 -761 93 C-760.401875 92.236875 -759.80375 91.47375 -759.1875 90.6875 C-757.23695092 88.29111114 -755.33929942 86.49337714 -753 84.5 C-749.9237314 81.87695697 -747.51755747 79.16724972 -745 76 C-738.7 70 -738.7 70 -736 70 C-735.7525 69.443125 -735.505 68.88625 -735.25 68.3125 C-732.57088214 63.35613196 -728.97200346 59.99347287 -724.5625 56.5625 C-721.38174535 54.02637829 -718.46547601 51.63152958 -715.9375 48.4375 C-715.298125 47.633125 -714.65875 46.82875 -714 46 C-713.34 46 -712.68 46 -712 46 C-712 45.34 -712 44.68 -712 44 C-710.01739574 42.31267723 -708.0167658 40.64633943 -706 39 C-705.67 38.34 -705.34 37.68 -705 37 C-704.34 37 -703.68 37 -703 37 C-702.773125 36.443125 -702.54625 35.88625 -702.3125 35.3125 C-700.63283282 32.35308639 -698.43248148 30.37591214 -696 28 C-695.175 26.989375 -694.35 25.97875 -693.5 24.9375 C-691.16605816 22.19511833 -688.80414483 20.22893564 -686 18 C-685.34 17.175 -684.68 16.35 -684 15.5 C-681.89680365 12.87100457 -679.62100457 11.09680365 -677 9 C-676.1646875 7.824375 -676.1646875 7.824375 -675.3125 6.625 C-668.25515879 -1.38603597 -658.28679216 -4.0674736 -648 -5 C-644.65730131 -5.13208286 -641.31939678 -5.13098744 -637.97442818 -5.12025452 C-636.9876851 -5.12110876 -636.00094202 -5.12196301 -634.98429763 -5.12284315 C-631.67547719 -5.12448838 -628.36670763 -5.11898379 -625.05789185 -5.11352539 C-622.66221075 -5.11324537 -620.26652958 -5.11340837 -617.87084854 -5.11397648 C-612.66033441 -5.11421048 -607.44983148 -5.11134344 -602.23932076 -5.10574722 C-594.48969232 -5.09744758 -586.74006952 -5.09492483 -578.99043713 -5.09362289 C-565.94487616 -5.09128827 -552.8993213 -5.08443701 -539.85376358 -5.07516479 C-522.00986211 -5.06254371 -504.16596267 -5.0565147 -486.32205747 -5.05223143 C-477.99986561 -5.05022504 -469.67767385 -5.04789744 -461.3554821 -5.04548645 C-460.10566256 -5.04512493 -460.10566256 -5.04512493 -458.83059414 -5.04475611 C-438.99546017 -5.03894411 -419.16032782 -5.02998962 -399.32519531 -5.02050781 C-398.45742124 -5.02009417 -397.58964716 -5.01968052 -396.6955769 -5.01925434 C-381.74718705 -5.01212412 -366.79879732 -5.00477526 -351.8504076 -4.99739647 C-339.58842281 -4.99134606 -327.326438 -4.98536392 -315.06445312 -4.97949219 C-313.76943361 -4.9788703 -313.76943361 -4.9788703 -312.44825208 -4.97823586 C-292.69921497 -4.96876934 -272.95017804 -4.96022139 -253.20113945 -4.95451355 C-251.95227107 -4.95415206 -251.95227107 -4.95415206 -250.67817303 -4.95378327 C-242.36003368 -4.95139634 -234.04189431 -4.94916855 -225.72375486 -4.94717702 C-207.91668401 -4.94287892 -190.1096204 -4.93585429 -172.30255345 -4.92312917 C-159.29957367 -4.91388056 -146.29659632 -4.90817415 -133.29361339 -4.90601182 C-126.26571638 -4.90473329 -119.23782941 -4.90184932 -112.20993614 -4.89425278 C-73.99022686 -4.84748115 -73.99022686 -4.84748115 -35.78552055 -5.78468323 C-7.52140648 -6.78761073 -7.52140648 -6.78761073 0 0 Z " fill="#FFFFFF" transform="translate(2474,846)"/>
<path d="M0 0 C0.83869629 0.19255371 1.67739258 0.38510742 2.54150391 0.58349609 C13.22719209 3.07245674 23.07390492 6.26807477 33 11 C33.99 11.44988281 34.98 11.89976563 36 12.36328125 C49.04015447 18.51920523 64.21630447 27.39297376 73 39 C74.66270287 40.33827304 76.32916181 41.67189785 78 43 C81 46.51724138 81 46.51724138 81 49 C81.66 49 82.32 49 83 49 C84.7265625 50.86328125 84.7265625 50.86328125 86.625 53.3125 C87.57246094 54.51326172 87.57246094 54.51326172 88.5390625 55.73828125 C90 58 90 58 90 61 C90.66 61 91.32 61 92 61 C92.67408308 62.26691507 93.33900497 63.53870749 94 64.8125 C94.37125 65.52019531 94.7425 66.22789063 95.125 66.95703125 C96 69 96 69 96 72 C96.66 72 97.32 72 98 72 C98.33 73.98 98.66 75.96 99 78 C99.66 78 100.32 78 101 78 C101.33773438 78.95261719 101.67546875 79.90523437 102.0234375 80.88671875 C102.47390696 82.1536641 102.92443067 83.42059016 103.375 84.6875 C103.81585937 85.92886719 104.25671875 87.17023438 104.7109375 88.44921875 C105.46045137 90.51378878 106.23464314 92.57033697 107.0703125 94.6015625 C113.07927579 110.10367788 114.17799481 126.93444374 114.13037109 143.35913086 C114.12500181 145.56175592 114.13035068 147.7641779 114.13671875 149.96679688 C114.14050372 157.03024533 114.09760668 164.00468983 113 171 C112.67 171.33 112.34 171.66 112 172 C111.67276841 173.63913279 111.38889699 175.28698639 111.125 176.9375 C109.00306386 188.75971564 104.51226064 198.42041456 99 209 C98.67 209.66 98.34 210.32 98 211 C97.34 211 96.68 211 96 211 C95.67 212.32 95.34 213.64 95 215 C94.34 215 93.68 215 93 215 C92.93296875 215.52980469 92.8659375 216.05960938 92.796875 216.60546875 C91.65844999 220.02632429 89.4784082 222.53859604 87.25 225.3125 C86.33747119 226.46790535 85.42600231 227.62414866 84.515625 228.78125 C83.86110352 229.61076172 83.86110352 229.61076172 83.19335938 230.45703125 C81.72153906 232.36003951 80.35301599 234.32372951 79 236.3125 C78.34 237.199375 77.68 238.08625 77 239 C76.34 239 75.68 239 75 239 C74.67 239.99 74.34 240.98 74 242 C73.34 242 72.68 242 72 242 C71.7525 242.61875 71.505 243.2375 71.25 243.875 C69.77229238 246.38710296 68.56044823 246.76107344 66 248 C65.67 248.99 65.34 249.98 65 251 C64.34 251 63.68 251 63 251 C63 251.66 63 252.32 63 253 C61.72167969 254.2175293 61.72167969 254.2175293 59.921875 255.57421875 C59.2616333 256.07356934 58.6013916 256.57291992 57.92114258 257.08740234 C57.20466553 257.61543457 56.48818848 258.1434668 55.75 258.6875 C55.01998779 259.22842285 54.28997559 259.7693457 53.5378418 260.32666016 C23.42195258 282.35205805 23.42195258 282.35205805 9 281 C9 281.66 9 282.32 9 283 C8.36191406 283.13277344 7.72382812 283.26554687 7.06640625 283.40234375 C6.24011719 283.57894531 5.41382813 283.75554688 4.5625 283.9375 C3.32693359 284.19853516 3.32693359 284.19853516 2.06640625 284.46484375 C0.02338796 284.80752994 0.02338796 284.80752994 -1 286 C-7.04345144 287.16893616 -13.01717743 287.14507113 -19.15625 287.1328125 C-20.21734985 287.13376923 -21.27844971 287.13472595 -22.3717041 287.13571167 C-24.6073411 287.13638988 -26.8429801 287.13456069 -29.07861328 287.13037109 C-32.48865203 287.12501781 -35.89855907 287.13032831 -39.30859375 287.13671875 C-41.48697946 287.1360579 -43.66536508 287.13477661 -45.84375 287.1328125 C-46.85747681 287.13483673 -47.87120361 287.13686096 -48.91564941 287.13894653 C-57.39438047 287.11104541 -65.42872772 286.40919882 -73.3125 283 C-77.42306109 281.4704889 -81.69405026 280.78594034 -86 280 C-86 279.34 -86 278.68 -86 278 C-87.19625 277.896875 -88.3925 277.79375 -89.625 277.6875 C-93.5624176 277.21108648 -96.54140375 275.98869284 -100 274 C-100 273.34 -100 272.68 -100 272 C-100.68449219 271.92652344 -101.36898438 271.85304688 -102.07421875 271.77734375 C-105.85234013 270.77354381 -108.67274038 268.79918494 -111.8125 266.5625 C-112.40998047 266.15451172 -113.00746094 265.74652344 -113.62304688 265.32617188 C-115.12385238 264.27475042 -116.56765923 263.14293663 -118 262 C-118 261.34 -118 260.68 -118 260 C-119.32 259.67 -120.64 259.34 -122 259 C-122 258.34 -122 257.68 -122 257 C-122.58193115 256.74331543 -123.1638623 256.48663086 -123.76342773 256.22216797 C-126.20541557 254.8877513 -127.82650142 253.41673627 -129.78515625 251.4453125 C-130.48060547 250.74792969 -131.17605469 250.05054687 -131.89257812 249.33203125 C-132.60865234 248.60371094 -133.32472656 247.87539062 -134.0625 247.125 C-135.14241211 246.04412109 -135.14241211 246.04412109 -136.24414062 244.94140625 C-145 236.11237813 -145 236.11237813 -145 233 C-145.99 232.67 -146.98 232.34 -148 232 C-149.79166298 230.01754428 -151.4353588 228.04862455 -153.0625 225.9375 C-153.54203125 225.31915283 -154.0215625 224.70080566 -154.515625 224.0637207 C-169.6911143 204.13593332 -169.6911143 204.13593332 -172 193 C-172.25007812 191.81019531 -172.50015625 190.62039062 -172.7578125 189.39453125 C-173.58638642 185.27625289 -174.30633497 181.14286151 -175 177 C-175.19722656 175.84113281 -175.39445313 174.68226563 -175.59765625 173.48828125 C-181.21521118 137.66076423 -178.80484603 99.30507886 -160.8125 67.375 C-160.47968018 66.78283691 -160.14686035 66.19067383 -159.80395508 65.58056641 C-158.11987269 62.66588979 -156.42649844 60.31470853 -154 58 C-153.01344889 56.56060575 -152.05664572 55.10052538 -151.125 53.625 C-148.73269396 49.96548234 -146.18355966 47.01600389 -143 44 C-142.401875 43.21625 -141.80375 42.4325 -141.1875 41.625 C-138.15011434 37.98013721 -134.60347268 35.07084259 -131 32 C-129.66594463 30.81331121 -128.33260022 29.62582264 -127 28.4375 C-121.02564611 23.22309328 -114.92213067 18.8735853 -108 15 C-106.865625 14.35160156 -105.73125 13.70320313 -104.5625 13.03515625 C-95.94002231 8.21412831 -87.49596532 4.75382994 -78 2 C-77.08734375 1.71511719 -76.1746875 1.43023438 -75.234375 1.13671875 C-50.63441581 -5.87642751 -24.70858657 -5.81794174 0 0 Z " fill="#FFFFFF" transform="translate(1178,1908)"/>
<path d="M0 0 C2.68620937 0.74564929 5.31594506 1.35369231 8.05078125 1.87109375 C21.40571115 4.7667421 33.74002972 12.59213201 45.2421875 19.671875 C47.24323719 20.86218633 49.26749986 21.9213456 51.36328125 22.93359375 C51.36328125 23.59359375 51.36328125 24.25359375 51.36328125 24.93359375 C51.92402344 25.18882813 52.48476562 25.4440625 53.0625 25.70703125 C59.91436836 29.35980997 65.67729783 34.88302596 70.59375 40.82421875 C72.5538144 43.16071936 74.64247572 45.34333816 76.73828125 47.55859375 C91.1443612 63.60897924 98.10978598 82.86673744 101.96907043 103.8421936 C102.2499908 105.33255579 102.55055651 106.81927141 102.86430359 108.30307007 C104.27587836 115.29486223 104.65621623 121.98095946 104.62890625 129.1015625 C104.6308197 130.22121902 104.63273315 131.34087555 104.63470459 132.49446106 C104.63605637 134.84323351 104.63243091 137.19201369 104.62402344 139.54077148 C104.61327927 143.12175309 104.62396899 146.70223657 104.63671875 150.28320312 C104.63539757 152.57682401 104.63283603 154.8704446 104.62890625 157.1640625 C104.63295471 158.22570114 104.63700317 159.28733978 104.64117432 160.38114929 C104.60422351 166.27146728 104.02597305 171.28293607 102.36328125 176.93359375 C102.04168632 178.39852225 101.72915732 179.86553586 101.43359375 181.3359375 C99.13928955 192.42507447 96.39567013 201.26329605 89.890625 210.6484375 C87.46835802 214.27254538 85.41602793 218.09150594 83.36328125 221.93359375 C82.70328125 221.93359375 82.04328125 221.93359375 81.36328125 221.93359375 C80.99203125 222.74570313 80.99203125 222.74570313 80.61328125 223.57421875 C79.08339521 226.46187865 77.27177128 229.03135393 75.36328125 231.68359375 C74.66203125 232.6684375 73.96078125 233.65328125 73.23828125 234.66796875 C72.31015625 235.78945312 72.31015625 235.78945312 71.36328125 236.93359375 C70.70328125 236.93359375 70.04328125 236.93359375 69.36328125 236.93359375 C69.11578125 237.49046875 68.86828125 238.04734375 68.61328125 238.62109375 C67.12457596 241.37519854 65.47918153 243.62533889 63.36328125 245.93359375 C62.37328125 245.93359375 61.38328125 245.93359375 60.36328125 245.93359375 C60.03328125 246.92359375 59.70328125 247.91359375 59.36328125 248.93359375 C58.70328125 248.93359375 58.04328125 248.93359375 57.36328125 248.93359375 C57.36328125 249.59359375 57.36328125 250.25359375 57.36328125 250.93359375 C56.04328125 251.26359375 54.72328125 251.59359375 53.36328125 251.93359375 C53.36328125 252.59359375 53.36328125 253.25359375 53.36328125 253.93359375 C51.3513705 255.43488277 49.3594288 256.78913909 47.23828125 258.12109375 C46.29843384 258.71784912 46.29843384 258.71784912 45.33959961 259.32666016 C29.57316492 269.1583059 11.7287632 277.12041953 -6.82421875 279.55859375 C-9.5359638 279.63035544 -9.5359638 279.63035544 -10.63671875 280.93359375 C-16.09411884 281.93711469 -21.44919149 282.12308109 -26.98828125 282.171875 C-27.8830014 282.17994675 -28.77772156 282.18801849 -29.69955444 282.19633484 C-31.59395448 282.21011898 -33.48837876 282.22086629 -35.3828125 282.22875977 C-37.2770949 282.2401653 -39.17134819 282.26043047 -41.06542969 282.2902832 C-57.47568723 282.54804348 -72.8897113 280.62973673 -88.63671875 275.93359375 C-89.34957031 275.73378906 -90.06242187 275.53398437 -90.796875 275.328125 C-101.32069262 272.10831222 -112.81802288 266.49681672 -121.63671875 259.93359375 C-121.63671875 259.27359375 -121.63671875 258.61359375 -121.63671875 257.93359375 C-122.39984375 257.64484375 -123.16296875 257.35609375 -123.94921875 257.05859375 C-126.63671875 255.93359375 -126.63671875 255.93359375 -129.63671875 253.93359375 C-129.63671875 253.27359375 -129.63671875 252.61359375 -129.63671875 251.93359375 C-130.62671875 251.60359375 -131.61671875 251.27359375 -132.63671875 250.93359375 C-132.63671875 250.27359375 -132.63671875 249.61359375 -132.63671875 248.93359375 C-133.56484375 248.56234375 -133.56484375 248.56234375 -134.51171875 248.18359375 C-137.02382171 246.70588613 -137.39779219 245.49404198 -138.63671875 242.93359375 C-139.62671875 242.60359375 -140.61671875 242.27359375 -141.63671875 241.93359375 C-143.390625 240.04296875 -143.390625 240.04296875 -145.19921875 237.68359375 C-145.79863281 236.9153125 -146.39804688 236.14703125 -147.015625 235.35546875 C-148.62876346 232.94547877 -149.66582586 230.65789022 -150.63671875 227.93359375 C-151.29671875 227.93359375 -151.95671875 227.93359375 -152.63671875 227.93359375 C-156.63671875 222.6394761 -156.63671875 222.6394761 -156.63671875 218.93359375 C-157.29671875 218.93359375 -157.95671875 218.93359375 -158.63671875 218.93359375 C-164.47078566 209.14659697 -169.16649605 199.82157872 -172.63671875 188.93359375 C-173.17232422 187.42539063 -173.17232422 187.42539063 -173.71875 185.88671875 C-179.01004251 170.90463209 -180.81421663 156.34295728 -180.76171875 140.55859375 C-180.76558594 139.40359375 -180.76945312 138.24859375 -180.7734375 137.05859375 C-180.76119056 126.20780925 -179.94808767 116.03489032 -177.32421875 105.49609375 C-177.09984131 104.58085938 -176.87546387 103.665625 -176.64428711 102.72265625 C-170.28007803 77.22060351 -158.38806829 56.64179649 -139.94921875 37.99609375 C-139.30710449 37.34455322 -138.66499023 36.6930127 -138.00341797 36.02172852 C-134.72343074 32.76433543 -131.670692 30.2357761 -127.63671875 27.93359375 C-127.01539063 27.31226563 -126.3940625 26.6909375 -125.75390625 26.05078125 C-117.17400266 17.47087766 -105.74321615 12.31379666 -94.63671875 7.93359375 C-92.23907043 6.87519585 -89.84322491 5.81270434 -87.44921875 4.74609375 C-81.58995272 2.24335943 -75.84165846 0.35307996 -69.63671875 -1.06640625 C-68.48945312 -1.33324219 -67.3421875 -1.60007812 -66.16015625 -1.875 C-43.92407802 -6.85073913 -21.92565679 -6.21568464 0 0 Z " fill="#FFFFFF" transform="translate(1735.63671875,1901.06640625)"/>
</svg>
